<!DOCTYPE svg PUBLIC "-//W3C//DTD SVG 1.1//EN" "http://www.w3.org/Graphics/SVG/1.1/DTD/svg11.dtd">
<!-- Uploaded to: SVG Repo, www.svgrepo.com, Transformed by: SVG Repo Mixer Tools -->
<svg fill="#bdbdbd" width="800px" height="800px" viewBox="0 0 24 24" xmlns="http://www.w3.org/2000/svg" stroke="#bdbdbd">
<g id="SVGRepo_bgCarrier" stroke-width="0"/>
<g id="SVGRepo_tracerCarrier" stroke-linecap="round" stroke-linejoin="round"/>
<g id="SVGRepo_iconCarrier">
<path fill-rule="evenodd" d="M8.954 17H2.75A1.75 1.75 0 011 15.25V3.75C1 2.784 1.784 2 2.75 2h18.5c.966 0 1.75.784 1.75 1.75v11.5A1.75 1.75 0 0121.25 17h-6.204c.171 1.375.805 2.652 1.769 3.757A.75.75 0 0116.25 22h-8.5a.75.75 0 01-.565-1.243c.964-1.105 1.598-2.382 1.769-3.757zM21.5 3.75v11.5a.25.25 0 01-.25.25H2.75a.25.25 0 01-.25-.25V3.75a.25.25 0 01.25-.25h18.5a.25.25 0 01.25.25zM13.537 17c.125 1.266.564 2.445 1.223 3.5H9.24c.659-1.055 1.097-2.234 1.223-3.5h3.074z"/>
</g>
</svg>